<svg xmlns="http://www.w3.org/2000/svg" viewBox="0 0 1200 760" role="img" aria-label="Procurement & Sourcing">
<defs>
 <linearGradient id="bg" x1="0" y1="0" x2="1" y2="1"><stop offset="0" stop-color="#f7fbff"/><stop offset="1" stop-color="#edf8f1"/></linearGradient>
 <linearGradient id="card" x1="0" y1="0" x2="1" y2="1"><stop offset="0" stop-color="#ffffff"/><stop offset="1" stop-color="#f3f7fb"/></linearGradient>
 <filter id="shadow"><feDropShadow dx="0" dy="16" stdDeviation="18" flood-color="#06265f" flood-opacity=".12"/></filter>
</defs>
<rect width="1200" height="760" rx="34" fill="url(#bg)"/>
<circle cx="1050" cy="110" r="120" fill="#16a34a" opacity=".12"/>
<circle cx="130" cy="650" r="170" fill="#063b91" opacity=".08"/>
<rect x="70" y="70" width="1060" height="620" rx="30" fill="url(#card)" filter="url(#shadow)"/>
<rect x="70" y="70" width="1060" height="12" rx="6" fill="#063b91"/>
<rect x="190" y="215" width="360" height="290" rx="22" fill="#eef4ff"/><rect x="235" y="255" width="270" height="45" rx="8" fill="#fff"/><rect x="235" y="325" width="210" height="25" rx="12" fill="#cbd5e1"/><rect x="235" y="370" width="240" height="25" rx="12" fill="#cbd5e1"/><rect x="235" y="415" width="170" height="25" rx="12" fill="#cbd5e1"/><circle cx="735" cy="350" r="120" fill="#eaf8ef"/><path d="M675 350l45 45 90-105" fill="none" stroke="#16a34a" stroke-width="30" stroke-linecap="round" stroke-linejoin="round"/><path d="M615 520h280" stroke="#063b91" stroke-width="18" stroke-linecap="round"/>
<text x="105" y="645" font-family="Arial, sans-serif" font-size="28" font-weight="700" fill="#0f172a">Procurement & Sourcing</text>
<text x="105" y="680" font-family="Arial, sans-serif" font-size="18" fill="#64748b">KROOZ'IN GENERAL SERVICES NIGERIA LIMITED</text>
</svg>